<svg class="icon" width="128px" height="127.88px" viewBox="0 0 1025 1024" version="1.1" xmlns="http://www.w3.org/2000/svg"><path fill="#fff" d="M182.246781 971.117132c14.624509 0 26.520428 11.808261 26.520428 26.406269 0 14.600046-11.895919 26.476599-26.520428 26.476599L81.134019 1024c-21.692138 0-41.634187-9.012399-56.049745-23.401457-14.344209-14.321785-23.371898-34.159868-23.371898-55.956992L1.712376 82.804605c0-21.795085 8.958378-41.635206 23.302587-56.026302C39.430522 12.458557 59.302241 3.516487 81.134019 3.516487l863.618633 0c21.830759 0 41.703497 9.01138 56.048726 23.332146 14.416577 14.391096 23.370878 34.301547 23.370878 55.956992l0 861.835927c0 21.656464-9.024631 41.565896-23.43917 55.885643-14.415558 14.390076-34.287277 23.472806-55.980435 23.472806L323.10502 1024c-14.625528 0-26.521447-11.875533-26.521447-26.476599 0-14.598008 11.895919-26.406269 26.521447-26.406269l621.647633 0c7.068649 0 13.646008-3.073104 18.543608-7.963569 4.898619-4.819116 7.90649-11.456613 7.90649-18.512011L971.202751 82.804605c0-7.125728-3.00787-13.762205-7.83616-18.582341-4.829309-4.820135-11.406668-7.824948-18.613938-7.824948L81.134019 56.397317c-7.207269 0-13.854959 3.004813-18.682229 7.754618-4.758979 4.820135-7.768888 11.456613-7.768888 18.651651l0 861.835927c0 7.196057 3.009909 13.762205 7.837179 18.582341 4.82829 4.820135 11.475979 7.893239 18.612919 7.893239L182.246781 971.115093zM784.442635 101.735537c25.470578 0 48.632506 10.408802 65.425005 27.10549l0.06931 0.138621c16.725228 16.696688 27.149318 39.818864 27.149318 65.247652 0 25.568428-10.424091 48.691624-27.149318 65.386273-10.846069 10.898052-24.41869 19.071591-39.602779 23.472806-4.480718 74.886904-36.807936 142.299489-86.700261 192.178564-53.879716 53.791039-128.40172 87.113066-210.691594 87.113066-82.288854 0-156.740529-33.322027-210.691594-87.113066-49.889268-49.879075-82.218524-117.292679-86.697204-192.249913-15.113759-4.400195-28.620127-12.573734-39.465177-23.402476l-0.07033 0-0.07033-0.06931-0.13964-0.13964c-16.652859-16.767018-27.008659-39.818864-27.008659-65.178342 0-25.498098 10.426129-48.620275 27.148299-65.386273 16.794538-16.696688 39.955447-27.10549 65.496354-27.10549 25.539888 0 48.630467 10.408802 65.425005 27.10549l0.140659 0.138621c16.72217 16.696688 27.080008 39.818864 27.080008 65.247652 0 25.568428-10.357838 48.691624-27.080008 65.386273-10.637118 10.617752-23.721508 18.582341-38.416347 23.123195 4.339039 60.427517 30.717788 114.776098 71.092155 155.154542 44.365835 44.220079 105.592461 71.60383 173.255786 71.60383 67.666384 0 128.89199-27.383751 173.254767-71.60383 40.374367-40.378444 66.756174-94.728045 71.095213-155.223853-14.555198-4.471545-27.640607-12.505443-38.277726-23.053885l0 0-0.06931-0.06931-0.20997-0.13964c-16.654898-16.767018-26.939348-39.818864-26.939348-65.178342 0-25.498098 10.357838-48.620275 27.149318-65.386273C735.669469 112.145358 758.831397 101.735537 784.442635 101.735537L784.442635 101.735537zM812.571473 166.215677l-0.07033-0.07033c-7.13694-7.125728-17.07178-11.526943-28.058509-11.526943-10.98469 0-20.922588 4.471545-28.059528 11.597272-7.205231 7.194019-11.6146 17.114589-11.6146 28.011622 0 11.037692 4.40835 20.957243 11.475979 28.012641l0.138621 0.13964c7.068649 7.125728 17.004508 11.526943 28.059528 11.526943 10.986729 0 20.852258-4.470525 28.058509-11.665563 7.138978-7.125728 11.615619-17.046298 11.615619-28.012641C824.117782 183.259937 819.709432 173.410716 812.571473 166.215677L812.571473 166.215677zM269.643205 166.215677l-0.140659-0.07033c-7.134901-7.125728-17.07178-11.526943-28.057489-11.526943-10.91538 0-20.853278 4.471545-28.060547 11.597272-7.13694 7.194019-11.615619 17.114589-11.615619 28.011622 0 11.037692 4.40835 20.957243 11.546309 28.012641l0.06931 0.13964c7.137959 7.125728 17.073819 11.526943 28.060547 11.526943s20.922588-4.470525 28.057489-11.665563c7.208289-7.125728 11.616638-17.046298 11.616638-28.012641C281.119184 183.259937 276.781164 173.410716 269.643205 166.215677L269.643205 166.215677z" /></svg>