<svg class="icon" width="128px" height="106.74px" viewBox="0 0 1228 1024" version="1.1" xmlns="http://www.w3.org/2000/svg"><path fill="#fff" d="M1101.707947 474.9312v-309.248A124.859733 124.859733 0 0 0 974.595413 38.434133H127.133013A124.859733 124.859733 0 0 0 0.02048 165.614933v593.237334c0 72.021333 55.0912 127.112533 127.112533 127.112533h563.541334c55.0912 76.253867 144.042667 127.112533 241.527466 127.112533A294.775467 294.775467 0 0 0 1228.82048 716.458667c0-101.717333-50.858667-190.6688-127.112533-241.527467z m-453.358934 326.314667H127.133013c-25.3952 0-42.325333-16.9984-42.325333-42.3936v-593.237334c0-25.3952 16.930133-42.325333 42.325333-42.325333h847.4624c25.3952 0 42.325333 16.930133 42.325334 42.325333v266.922667h-4.232534c-8.465067-4.164267-50.7904-12.6976-80.4864-12.6976a294.775467 294.775467 0 0 0-296.618666 296.618667c0 12.765867 4.232533 46.626133 4.232533 46.626133 0 12.6976 4.232533 25.3952 8.533333 38.161067 0-4.232533 0 0 0 0z m283.8528 127.112533c-88.951467 0-160.9728-50.858667-194.901333-127.112533-4.232533-12.765867-12.6976-38.161067-12.6976-42.3936-4.232533-16.930133-4.232533-29.627733-4.232533-42.325334a209.783467 209.783467 0 0 1 211.831466-211.899733c12.6976 0 50.858667 0 80.554667 16.930133 76.253867 33.928533 127.112533 105.949867 127.112533 194.901334 4.232533 118.647467-89.019733 211.899733-207.6672 211.899733zM677.976747 504.6272c0-25.463467-16.930133-42.325333-42.325334-42.325333H550.795947v-33.928534l105.949866-105.949866a40.96 40.96 0 0 0 0-59.392 40.96 40.96 0 0 0-59.392 0L508.53888 352.119467 419.519147 263.099733a40.96 40.96 0 0 0-59.392 0 40.96 40.96 0 0 0 0 59.323734l106.018133 105.949866v33.860267H381.35808c-25.3952 0-42.325333 16.930133-42.325333 42.325333 0 25.463467 16.930133 42.461867 42.325333 42.461867h84.7872v84.650667c0 25.463467 16.930133 42.461867 42.325333 42.461866 25.463467 0 42.3936-16.9984 42.3936-42.3936V547.0208H635.583147c25.463467 0 42.3936-16.9984 42.3936-42.3936z m326.314666 118.647467l-89.019733 88.951466-63.556267-59.323733a40.96 40.96 0 0 0-59.392 0 40.96 40.96 0 0 0 0 59.392l89.019734 88.951467a45.738667 45.738667 0 0 0 29.696 12.6976 45.738667 45.738667 0 0 0 29.627733-12.6976l118.647467-118.647467a40.96 40.96 0 0 0 0-59.392c-12.6976-16.861867-42.325333-16.861867-55.0912 0z" /></svg>