<svg class="icon" width="128px" height="127.50px" viewBox="0 0 1028 1024" version="1.1" xmlns="http://www.w3.org/2000/svg"><path fill="#fff" d="M215.792251 963.485084H61.839206c15.537793-214.469438 194.999898-384.202685 413.359697-384.202685 51.248703 0 100.355639 9.35342 145.702287 26.438786l46.433052-46.433052c-2.413738-1.068667-4.821564-2.141768-7.251562-3.170526a475.753278 475.753278 0 0 0-40.798532-15.092885c21.935013-12.615588 42.344626-28.205115 60.717416-46.576427 54.707459-54.707459 84.835583-127.440354 84.835583-204.804139 0-77.369697-30.128124-150.102592-84.835583-204.810051C625.301495 30.128124 552.562687 0 475.198903 0c-77.369697 0-150.102592 30.128124-204.808573 84.834105-54.707459 54.707459-84.835583 127.440354-84.835583 204.810051 0 77.363785 30.128124 150.09668 84.835583 204.804139 18.371312 18.371312 38.788315 33.960839 60.723328 46.576427a475.020141 475.020141 0 0 0-40.798532 15.092885c-56.560997 23.92158-107.352967 58.160302-150.962847 101.770181-43.60988 43.60988-77.848602 94.40185-101.774616 150.962847C12.801741 867.426283 0.243799 929.627712 0.243799 993.734412c0 16.709927 13.545314 30.255241 30.255241 30.255241h185.293211c16.709927 0 30.255241-13.545314 30.25524-30.255241s-13.545314-30.249328-30.25524-30.249328z m30.272978-673.840928c0-126.349516 102.785636-229.139587 229.133674-229.139587s229.135152 102.790071 229.135152 229.139587c0 126.343604-102.785636 229.135152-229.135152 229.135152-126.348038 0-229.133674-102.791549-229.133674-229.135152z m666.754914 519.206479c-21.559575-50.960474-51.514762-97.214675-89.125031-137.775233l-42.952125 42.952125c61.208145 66.808668 100.874452 153.658902 107.814135 249.459035h-153.988519c-16.709927 0-30.249328 13.545314-30.249329 30.249329 0 16.709927 13.539401 30.255241 30.249329 30.25524h185.328685c16.709927 0 30.255241-13.545314 30.255241-30.25524 0.001478-64.102266-12.562377-126.309607-37.332386-184.885256z m-107.06326-254.713683c-11.818892-11.81298-30.970642-11.81298-42.783621 0L474.304652 842.805562l-126.562362-126.562362c-11.814458-11.81298-30.970642-11.81298-42.7851 0-11.81298 11.81298-11.81298 30.970642 0 42.783621L452.912102 906.981733a30.153252 30.153252 0 0 0 21.39255 8.856779 30.153252 30.153252 0 0 0 21.391072-8.856779l310.061159-310.061159c11.81298-11.811502 11.81298-30.969163 0-42.783622z m0 0" /></svg>