<?xml version="1.0" standalone="no"?><!DOCTYPE svg PUBLIC "-//W3C//DTD SVG 1.1//EN" "http://www.w3.org/Graphics/SVG/1.1/DTD/svg11.dtd"><svg t="1559093731373" class="icon" style="" viewBox="0 0 1024 1024" version="1.1" xmlns="http://www.w3.org/2000/svg" p-id="2197" xmlns:xlink="http://www.w3.org/1999/xlink" width="32" height="32"><defs><style type="text/css"></style></defs><path d="M645.688889 969.386667l-534.414222-2.844445 2.844444-912.497778L914.204444 56.888889v641.422222c0 149.333333-120.945778 271.132444-268.515555 271.132445z m-477.582222-56.718223h477.525333c115.996444 0 211.797333-95.857778 211.797333-211.854222l2.844445-589.937778-692.167111-2.844444v804.636444z" fill="#ffffff" p-id="2198"></path><path d="M681.415111 292.295111z m0 0H298.097778a26.965333 26.965333 0 0 1-28.387556-28.444444c0-16.839111 11.491556-28.387556 28.444445-28.387556h383.260444c16.896 0 28.444444 11.548444 28.444445 28.444445s-11.548444 28.387556-28.444445 28.387555z m-12.8 204.401778H303.217778a26.965333 26.965333 0 0 1-28.387556-28.387556c0-16.896 11.491556-28.444444 28.444445-28.444444h365.340444c16.896 0 28.444444 11.548444 28.444445 28.444444a28.444444 28.444444 0 0 1-28.444445 28.444445z m-112.412444 178.858667H303.217778a26.965333 26.965333 0 0 1-28.387556-28.387556c0-16.896 11.491556-28.387556 28.444445-28.387556h252.928c16.896 0 28.444444 11.491556 28.444444 28.444445a28.444444 28.444444 0 0 1-28.444444 28.330667z" fill="#ffffff" p-id="2199"></path></svg>